<svg width="156" height="61" viewBox="0 0 156 61" fill="none" xmlns="http://www.w3.org/2000/svg">
<rect width="156" height="61" rx="15" fill="white"/>
<path d="M74.8397 22.24H75.1397C75.6997 22.24 76.0197 22.57 76.0997 23.23C76.0997 23.81 75.3097 24.1 73.7297 24.1C71.1897 25.06 69.4797 26.46 68.5997 28.3L68.3897 29.17V29.35C68.3897 30.23 68.9797 30.67 70.1597 30.67L73.4597 30.49C75.6797 30.49 77.1797 31.57 77.9597 33.73L78.1397 34.78C78.1397 36.86 76.4597 38.76 73.0997 40.48C72.0997 40.76 71.2197 40.95 70.4597 41.05C68.4197 41.05 66.9797 39.9 66.1397 37.6C65.8997 36.82 65.7797 36.03 65.7797 35.23C65.7797 34.99 65.9697 34.74 66.3497 34.48H66.7097C67.3297 34.48 67.6397 35.27 67.6397 36.85C68.1597 38.41 68.9797 39.19 70.0997 39.19H70.9097C72.5297 39.19 74.1297 38.25 75.7097 36.37C76.1297 35.77 76.3397 35.12 76.3397 34.42C76.3397 33.44 75.5697 32.75 74.0297 32.35H73.9097L69.9797 32.44C67.7997 32.18 66.7097 31.28 66.7097 29.74L66.5897 29.35C66.5897 27.29 68.1297 25.29 71.2097 23.35C72.5497 22.61 73.7597 22.24 74.8397 22.24ZM82.702 28.69C84.182 28.69 85.302 29.79 86.062 31.99L86.182 32.62C86.182 34.76 85.182 36.95 83.182 39.19C82.382 39.93 81.572 40.3 80.752 40.3C79.552 40.3 78.702 39.61 78.202 38.23C78.022 37.59 77.932 37.03 77.932 36.55V36.19C77.932 33.03 79.082 30.63 81.382 28.99C81.782 28.79 82.222 28.69 82.702 28.69ZM79.702 36.49C79.702 37.85 80.052 38.53 80.752 38.53C82.212 38.53 83.422 36.66 84.382 32.92V32.35C84.042 31.11 83.412 30.49 82.492 30.49C82.132 30.49 81.952 30.74 81.952 31.24C81.952 31.58 81.552 31.85 80.752 32.05C80.052 33.23 79.702 34.71 79.702 36.49ZM89.0714 29.83L90.3014 29.65C90.8014 29.65 91.0814 29.96 91.1414 30.58C91.1414 31.12 90.4914 31.47 89.1914 31.63C88.3714 32.27 87.9614 33.09 87.9614 34.09V35.08C88.3614 37.28 89.0414 38.38 90.0014 38.38H90.3014C90.8614 38.38 91.7014 37.85 92.8214 36.79H93.0014C93.4014 36.79 93.7214 37.07 93.9614 37.63C93.6814 38.49 92.7814 39.27 91.2614 39.97C90.9814 40.09 90.6314 40.15 90.2114 40.15C88.1514 40.15 86.8114 38.53 86.1914 35.29V34.63C86.1914 32.29 87.1514 30.69 89.0714 29.83ZM95.5043 24.13H95.6843C95.9443 24.13 96.1943 24.35 96.4343 24.79L96.3143 26.83V27.97L96.4343 33.22L96.5243 33.52H96.6143C97.4743 32.72 98.2243 31.31 98.8643 29.29L99.5243 29.08C100.084 29.16 100.364 29.41 100.364 29.83C100.364 31.13 99.4343 32.88 97.5743 35.08V35.29C100.034 38.15 101.654 39.58 102.434 39.58H102.614L103.364 39.13H103.634C104.054 39.13 104.364 39.41 104.564 39.97C104.564 40.61 103.854 41.05 102.434 41.29C101.014 41.29 99.1643 39.85 96.8843 36.97H96.6143L96.7043 38.59V40.15C96.5843 40.77 96.2743 41.08 95.7743 41.08C95.2143 40.96 94.9343 40.65 94.9343 40.15V39.97L94.8143 36.52C94.5943 36.52 94.4443 36.21 94.3643 35.59L94.7543 34.84L94.5743 28.09V26.77C94.5743 25.01 94.8843 24.13 95.5043 24.13ZM105.221 22.24C105.841 22.24 106.241 22.99 106.421 24.49V24.67C106.421 25.35 106.101 25.69 105.461 25.69C104.841 25.69 104.531 25.04 104.531 23.74C104.391 23.74 104.301 23.51 104.261 23.05C104.461 22.51 104.781 22.24 105.221 22.24ZM110.577 29.89C112.277 30.03 113.127 30.86 113.127 32.38L113.187 32.77L113.127 37.45C113.127 37.99 113.437 38.72 114.057 39.64V39.7C113.897 40.28 113.607 40.57 113.187 40.57C111.947 40.05 111.327 38.95 111.327 37.27V36.88L111.237 36.82L111.327 36.7V36.64L111.417 32.5C111.417 31.92 111.167 31.63 110.667 31.63H110.307C109.307 32.03 108.807 34.22 108.807 38.2C108.807 39.58 108.457 40.27 107.757 40.27C107.217 40.27 106.937 39.93 106.917 39.25V36.25C106.917 32.37 107.257 30.43 107.937 30.43L108.237 30.34L108.867 30.43C109.407 30.07 109.977 29.89 110.577 29.89ZM114.848 22.24C115.468 22.24 115.868 22.99 116.048 24.49V24.67C116.048 25.35 115.728 25.69 115.088 25.69C114.468 25.69 114.158 25.04 114.158 23.74C114.018 23.74 113.928 23.51 113.888 23.05C114.088 22.51 114.408 22.24 114.848 22.24ZM120.264 28.18C121.524 28.18 122.274 29.06 122.514 30.82V31.09C122.514 33.03 121.514 34.81 119.514 36.43C120.674 37.57 122.704 38.14 125.604 38.14C126.044 38.28 126.264 38.59 126.264 39.07C126.264 39.61 125.914 39.88 125.214 39.88C123.254 39.88 121.194 39.38 119.034 38.38V39.25C119.034 41.31 118.594 42.34 117.714 42.34C117.094 42.34 116.784 41.15 116.784 38.77V36.43L116.694 35.59L116.904 34.63L116.694 31.75V31.63C116.694 31.09 116.974 30.72 117.534 30.52C118.314 28.96 119.224 28.18 120.264 28.18ZM118.764 34.75C119.344 34.75 119.994 33.71 120.714 31.63V30.34L120.354 29.95H120.084C119.204 30.55 118.764 32.15 118.764 34.75ZM130.561 28.69C132.041 28.69 133.161 29.79 133.921 31.99L134.041 32.62C134.041 34.76 133.041 36.95 131.041 39.19C130.241 39.93 129.431 40.3 128.611 40.3C127.411 40.3 126.561 39.61 126.061 38.23C125.881 37.59 125.791 37.03 125.791 36.55V36.19C125.791 33.03 126.941 30.63 129.241 28.99C129.641 28.79 130.081 28.69 130.561 28.69ZM127.561 36.49C127.561 37.85 127.911 38.53 128.611 38.53C130.071 38.53 131.281 36.66 132.241 32.92V32.35C131.901 31.11 131.271 30.49 130.351 30.49C129.991 30.49 129.811 30.74 129.811 31.24C129.811 31.58 129.411 31.85 128.611 32.05C127.911 33.23 127.561 34.71 127.561 36.49ZM135.581 23.47C136.141 23.67 136.421 23.98 136.421 24.4L136.721 35.83V39.52C136.721 40.2 136.431 40.54 135.851 40.54H135.461C135.101 40.3 134.921 40.02 134.921 39.7V36.22L134.651 24.34C134.651 23.84 134.961 23.55 135.581 23.47ZM139.091 23.47C139.651 23.67 139.931 23.98 139.931 24.4L140.231 35.83V39.52C140.231 40.2 139.941 40.54 139.361 40.54H138.971C138.611 40.3 138.431 40.02 138.431 39.7V36.22L138.161 24.34C138.161 23.84 138.471 23.55 139.091 23.47Z" fill="#18435A"/>
<path d="M38.9472 27.469C39.263 25.8322 39.7367 23.2047 40.3684 20.4911C41 17.7775 42.6975 10.6704 42.6975 10.6704L29.6702 7.52606C29.6702 7.52606 27.2227 21.611 26.1963 26.5644C25.6436 29.1919 19.7616 32.2501 13.6428 35.9113C6.14223 40.434 11.8268 47.9288 16.4061 48.7472C18.6563 49.1348 20.7485 48.4026 22.446 46.895L28.8412 41.8985C30.2624 40.8217 32.1573 40.0464 33.8942 39.7449C36.4602 39.2711 39.0656 37.3758 39.6183 34.4899C40.4078 30.9579 38.6314 29.1488 38.9472 27.469Z" fill="url(#paint0_linear_29_152)"/>
<path d="M16.0904 42.5016C13.5047 39.1806 13.402 36.8848 13.4928 36.0061C6.22914 40.5374 11.8585 47.9331 16.4062 48.7472C18.6563 49.1348 20.7486 48.4026 22.4461 46.895L22.6435 46.74C21.2421 46.5074 18.5103 45.6287 16.0904 42.5016Z" fill="#F57C00"/>
<path d="M31.7506 36.9839C31.7506 38.1038 31.952 39.172 32.3151 40.1411C32.8441 39.9732 33.3771 39.8353 33.8942 39.7449C36.4602 39.2711 39.0656 37.3758 39.6183 34.4899C40.1868 31.9529 39.4288 30.3032 39.0775 28.955C39.0104 28.9507 38.9432 28.9421 38.8722 28.9421C34.9443 28.9335 31.7585 32.5344 31.7506 36.9839Z" fill="#F57C00"/>
<path d="M40.9211 17.6914L28.6439 14.7193C28.0122 14.547 27.6569 13.7717 27.8148 12.9533L28.9597 7.26767C29.1176 6.44928 29.7492 5.88932 30.3808 6.01854L42.658 8.9906C43.2896 9.16289 43.6449 9.93821 43.487 10.7566L42.3422 16.4423C42.1448 17.3037 41.5132 17.8637 40.9211 17.6914Z" fill="#EA6100"/>
<path d="M31.1309 13.2979L31.0124 13.2548C30.6177 13.1687 30.3808 12.7379 30.4598 12.3503L31.1309 8.99056C31.2098 8.55983 31.6046 8.30139 31.9599 8.38754L32.0783 8.43061C32.4731 8.51676 32.7099 8.94749 32.631 9.33515L31.9599 12.6949C31.8809 13.1256 31.5256 13.384 31.1309 13.2979Z" fill="#F9A825"/>
<path d="M33.8547 13.9871L33.7363 13.944C33.3416 13.8579 33.1047 13.4271 33.1836 13.0395L33.8547 9.67977C33.9337 9.24904 34.3285 8.9906 34.6838 9.07675L34.8022 9.11982C35.1969 9.20597 35.4338 9.6367 35.3549 10.0244L34.6838 13.3841C34.6048 13.8148 34.2495 14.0732 33.8547 13.9871Z" fill="#F9A825"/>
<path d="M36.5786 14.6332L36.4602 14.5901C36.0654 14.504 35.8286 14.0733 35.9075 13.6856L36.5786 10.3259C36.6576 9.89516 37.0523 9.63672 37.4076 9.72287L37.526 9.76594C37.9208 9.85209 38.1577 10.2828 38.0787 10.6705L37.4471 14.0302C37.3681 14.4609 36.9734 14.7194 36.5786 14.6332Z" fill="#F9A825"/>
<path d="M39.342 15.2793L39.2235 15.2362C38.8288 15.1501 38.5919 14.7193 38.6709 14.3317L39.342 10.9719C39.4209 10.5412 39.8157 10.2828 40.171 10.3689L40.2894 10.412C40.6842 10.4981 40.921 10.9289 40.8421 11.3165L40.171 14.6762C40.092 15.107 39.6972 15.3654 39.342 15.2793Z" fill="#FBC02D"/>
<path d="M53.3562 25.3154C52.9614 23.6786 52.2508 21.1373 51.6192 18.4237C50.9876 15.71 49.4875 8.55988 49.4875 8.55988L36.6181 12.3934C36.6181 12.3934 40.4473 26.1338 41.6711 31.001C42.3422 33.6285 38.434 39.2711 34.6048 45.689C29.9071 53.4853 38.1577 57.2327 42.5396 55.639C44.7108 54.8636 46.2109 53.0976 47.0794 50.9009L50.5928 43.1908C51.3823 41.5109 52.7245 39.8741 54.1457 38.7112C56.2379 36.9882 57.6986 33.9731 56.988 31.1733C56.1195 27.6844 53.7904 26.9522 53.3562 25.3154Z" fill="url(#paint1_linear_29_152)"/>
<path d="M56.988 31.1733C56.2893 28.3607 54.6391 27.3398 53.7983 26.1898C50.7507 27.8653 49.0808 31.5955 49.9849 35.1964C50.4704 37.1304 51.6192 38.6767 53.1035 39.6631C53.443 39.3185 53.7904 38.9997 54.1457 38.7112C56.2379 36.9882 57.6986 33.9731 56.988 31.1733Z" fill="#F57C00"/>
<path d="M50.9086 15.667L38.7893 19.2852C38.1577 19.4574 37.5261 18.9406 37.3287 18.1222L35.9075 12.5227C35.7101 11.7043 36.026 10.8859 36.6181 10.7136L48.7374 7.09542C49.369 6.92313 50.0006 7.44001 50.198 8.2584L51.6192 13.8579C51.856 14.6763 51.5402 15.4947 50.9086 15.667Z" fill="#F57C00"/>
<path d="M40.3684 16.7438L40.25 16.7868C39.8947 16.9161 39.4999 16.6576 39.3815 16.27L38.5525 12.9533C38.4341 12.5226 38.6709 12.1349 39.0262 12.0057L39.1447 11.9626C39.4999 11.8334 39.8947 12.0919 40.0131 12.4795L40.8421 15.7961C41 16.2269 40.7632 16.6576 40.3684 16.7438Z" fill="#FBC02D"/>
<path d="M43.0923 15.9685L42.9738 16.0116C42.6186 16.1408 42.2238 15.8823 42.1054 15.4947L41.2764 12.178C41.1579 11.7473 41.3948 11.3597 41.7501 11.2304L41.8685 11.1874C42.2238 11.0581 42.6186 11.3166 42.737 11.7042L43.566 15.0209C43.6844 15.4085 43.4476 15.8393 43.0923 15.9685Z" fill="#FBC02D"/>
<path d="M45.7767 15.15L45.6583 15.1931C45.303 15.3223 44.9082 15.0639 44.7898 14.6762L43.9608 11.3596C43.8423 10.9288 44.0792 10.5412 44.4345 10.412L44.5529 10.3689C44.9082 10.2397 45.303 10.4981 45.4214 10.8858L46.2504 14.2024C46.3688 14.5901 46.1715 15.0208 45.7767 15.15Z" fill="#FBC02D"/>
<path d="M48.5006 14.3317L48.3821 14.3748C48.0268 14.504 47.6321 14.2456 47.5137 13.8579L46.6846 10.5413C46.5662 10.1536 46.8031 9.72287 47.1584 9.59365L47.2768 9.55058C47.6321 9.42136 48.0268 9.6798 48.1453 10.0675L48.9743 13.3841C49.0927 13.8148 48.8559 14.2456 48.5006 14.3317Z" fill="#FBC02D"/>
<path d="M39.0814 50.2892C36.1641 48.1786 35.2246 46.2446 34.9245 45.1592C34.818 45.3358 34.7114 45.5124 34.6087 45.689C29.911 53.4852 38.1616 57.2326 42.5435 55.6389C44.1542 55.0617 45.3937 53.9418 46.2819 52.5032C44.7147 52.6367 42.0145 52.4299 39.0814 50.2892Z" fill="#F57C00"/>
<defs>
<linearGradient id="paint0_linear_29_152" x1="23.3821" y1="28.1929" x2="40.0768" y2="30.4818" gradientUnits="userSpaceOnUse">
<stop offset="0.461" stop-color="#FFB300"/>
<stop offset="0.9157" stop-color="#FF8F00"/>
</linearGradient>
<linearGradient id="paint1_linear_29_152" x1="39.9102" y1="33.8905" x2="57.3616" y2="28.2902" gradientUnits="userSpaceOnUse">
<stop offset="0.461" stop-color="#FFB300"/>
<stop offset="1" stop-color="#FF8F00"/>
</linearGradient>
</defs>
</svg>
