<svg width="103" height="60" viewBox="0 0 103 60" fill="none" xmlns="http://www.w3.org/2000/svg">
<rect width="103" height="60" rx="10" fill="white"/>
<path d="M85.219 26.469C85.5269 24.8322 85.9887 22.2047 86.6044 19.4911C87.2202 16.7775 88.875 9.67041 88.875 9.67041L76.1754 6.52606C76.1754 6.52606 73.7894 20.611 72.7889 25.5644C72.2501 28.1919 66.5161 31.2501 60.5511 34.9113C53.2393 39.434 58.7809 46.9288 63.245 47.7472C65.4385 48.1348 67.4782 47.4026 69.1329 45.895L75.3673 40.8985C76.7527 39.8217 78.5999 39.0464 80.2931 38.7449C82.7946 38.2711 85.3345 36.3758 85.8732 33.4899C86.6429 29.9579 84.9112 28.1488 85.219 26.469Z" fill="url(#paint0_linear_29_153)"/>
<path d="M62.9371 41.5016C60.4164 38.1806 60.3163 35.8848 60.4048 35.0061C53.3239 39.5374 58.8116 46.9331 63.2449 47.7472C65.4385 48.1348 67.4781 47.4026 69.1329 45.895L69.3253 45.74C67.9591 45.5074 65.2961 44.6287 62.9371 41.5016Z" fill="#F57C00"/>
<path d="M78.2035 35.9839C78.2035 37.1038 78.3997 38.172 78.7538 39.1411C79.2695 38.9732 79.789 38.8353 80.2931 38.7449C82.7945 38.2711 85.3344 36.3758 85.8732 33.4899C86.4274 30.9529 85.6885 29.3032 85.346 27.955C85.2806 27.9507 85.2151 27.9421 85.1459 27.9421C81.3168 27.9335 78.2112 31.5344 78.2035 35.9839Z" fill="#F57C00"/>
<path d="M87.1432 16.6914L75.1749 13.7193C74.5591 13.547 74.2128 12.7717 74.3667 11.9533L75.4827 6.26767C75.6367 5.44928 76.2524 4.88932 76.8681 5.01854L88.8365 7.9906C89.4522 8.16289 89.7986 8.93821 89.6446 9.7566L88.5286 15.4423C88.3362 16.3037 87.7205 16.8637 87.1432 16.6914Z" fill="#EA6100"/>
<path d="M77.5993 12.2979L77.4839 12.2548C77.099 12.1687 76.8681 11.7379 76.9451 11.3503L77.5993 7.99056C77.6763 7.55983 78.0611 7.30139 78.4075 7.38754L78.5229 7.43061C78.9078 7.51676 79.1387 7.94749 79.0617 8.33515L78.4075 11.6949C78.3305 12.1256 77.9842 12.384 77.5993 12.2979Z" fill="#F9A825"/>
<path d="M80.2547 12.9871L80.1392 12.944C79.7544 12.8579 79.5235 12.4271 79.6004 12.0395L80.2547 8.67977C80.3316 8.24904 80.7165 7.9906 81.0628 8.07675L81.1783 8.11982C81.5631 8.20597 81.794 8.6367 81.717 9.02436L81.0628 12.3841C80.9858 12.8148 80.6395 13.0732 80.2547 12.9871Z" fill="#F9A825"/>
<path d="M82.91 13.6332L82.7946 13.5901C82.4097 13.504 82.1788 13.0733 82.2558 12.6856L82.91 9.32589C82.987 8.89516 83.3718 8.63672 83.7182 8.72287L83.8336 8.76594C84.2185 8.85209 84.4494 9.28282 84.3724 9.67048L83.7567 13.0302C83.6797 13.4609 83.2949 13.7194 82.91 13.6332Z" fill="#F9A825"/>
<path d="M85.6038 14.2793L85.4884 14.2362C85.1036 14.1501 84.8727 13.7193 84.9496 13.3317L85.6038 9.97195C85.6808 9.54122 86.0656 9.28278 86.412 9.36892L86.5274 9.412C86.9123 9.49814 87.1432 9.92888 87.0662 10.3165L86.412 13.6762C86.335 14.107 85.9502 14.3654 85.6038 14.2793Z" fill="#FBC02D"/>
<path d="M99.2655 24.3154C98.8807 22.6786 98.188 20.1373 97.5722 17.4237C96.9565 14.71 95.4941 7.55988 95.4941 7.55988L82.9485 11.3934C82.9485 11.3934 86.6814 25.1338 87.8744 30.001C88.5286 32.6285 84.7188 38.2711 80.9859 44.689C76.4063 52.4853 84.4494 56.2327 88.721 54.639C90.8376 53.8636 92.3 52.0976 93.1466 49.9009L96.5717 42.1908C97.3413 40.5109 98.6498 38.8741 100.035 37.7112C102.075 35.9882 103.499 32.9731 102.806 30.1733C101.959 26.6844 99.6888 25.9522 99.2655 24.3154Z" fill="url(#paint1_linear_29_153)"/>
<path d="M102.806 30.1733C102.125 27.3607 100.516 26.3398 99.6965 25.1898C96.7256 26.8653 95.0978 30.5955 95.979 34.1964C96.4524 36.1304 97.5722 37.6767 99.0192 38.6631C99.3502 38.3185 99.6888 37.9997 100.035 37.7112C102.075 35.9882 103.499 32.9731 102.806 30.1733Z" fill="#F57C00"/>
<path d="M96.8795 14.667L85.0651 18.2852C84.4494 18.4574 83.8336 17.9406 83.6412 17.1222L82.2558 11.5227C82.0634 10.7043 82.3713 9.88587 82.9485 9.71358L94.7629 6.09542C95.3787 5.92313 95.9944 6.44001 96.1868 7.2584L97.5722 12.8579C97.8031 13.6763 97.4953 14.4947 96.8795 14.667Z" fill="#F57C00"/>
<path d="M86.6045 15.7438L86.489 15.7868C86.1427 15.9161 85.7579 15.6576 85.6424 15.27L84.8343 11.9533C84.7188 11.5226 84.9497 11.1349 85.2961 11.0057L85.4115 10.9626C85.7579 10.8334 86.1427 11.0919 86.2581 11.4795L87.0663 14.7961C87.2202 15.2269 86.9893 15.6576 86.6045 15.7438Z" fill="#FBC02D"/>
<path d="M89.2598 14.9685L89.1444 15.0116C88.798 15.1408 88.4132 14.8823 88.2978 14.4947L87.4896 11.178C87.3741 10.7473 87.605 10.3597 87.9514 10.2304L88.0668 10.1874C88.4132 10.0581 88.798 10.3166 88.9135 10.7042L89.7216 14.0209C89.8371 14.4085 89.6062 14.8393 89.2598 14.9685Z" fill="#FBC02D"/>
<path d="M91.8767 14.15L91.7613 14.1931C91.4149 14.3223 91.0301 14.0639 90.9147 13.6762L90.1065 10.3596C89.9911 9.92883 90.222 9.54117 90.5683 9.41195L90.6838 9.36888C91.0301 9.23966 91.4149 9.4981 91.5304 9.88576L92.3386 13.2024C92.454 13.5901 92.2616 14.0208 91.8767 14.15Z" fill="#FBC02D"/>
<path d="M94.5321 13.3317L94.4166 13.3748C94.0703 13.504 93.6854 13.2456 93.57 12.8579L92.7618 9.54127C92.6464 9.15361 92.8773 8.72287 93.2236 8.59365L93.3391 8.55058C93.6854 8.42136 94.0703 8.6798 94.1857 9.06746L94.9939 12.3841C95.1093 12.8148 94.8784 13.2456 94.5321 13.3317Z" fill="#FBC02D"/>
<path d="M85.3499 49.2892C82.506 47.1786 81.59 45.2446 81.2976 44.1592C81.1937 44.3358 81.0898 44.5124 80.9897 44.689C76.4102 52.4852 84.4532 56.2326 88.7249 54.6389C90.295 54.0617 91.5034 52.9418 92.3693 51.5032C90.8415 51.6367 88.2092 51.4299 85.3499 49.2892Z" fill="#F57C00"/>
<path d="M23.0741 19.24H23.3741C23.9341 19.24 24.2541 19.57 24.3341 20.23C24.3341 20.81 23.5441 21.1 21.9641 21.1C19.4241 22.06 17.7141 23.46 16.8341 25.3L16.6241 26.17V26.35C16.6241 27.23 17.2141 27.67 18.3941 27.67L21.6941 27.49C23.9141 27.49 25.4141 28.57 26.1941 30.73L26.3741 31.78C26.3741 33.86 24.6941 35.76 21.3341 37.48C20.3341 37.76 19.4541 37.95 18.6941 38.05C16.6541 38.05 15.2141 36.9 14.3741 34.6C14.1341 33.82 14.0141 33.03 14.0141 32.23C14.0141 31.99 14.2041 31.74 14.5841 31.48H14.9441C15.5641 31.48 15.8741 32.27 15.8741 33.85C16.3941 35.41 17.2141 36.19 18.3341 36.19H19.1441C20.7641 36.19 22.3641 35.25 23.9441 33.37C24.3641 32.77 24.5741 32.12 24.5741 31.42C24.5741 30.44 23.8041 29.75 22.2641 29.35H22.1441L18.2141 29.44C16.0341 29.18 14.9441 28.28 14.9441 26.74L14.8241 26.35C14.8241 24.29 16.3641 22.29 19.4441 20.35C20.7841 19.61 21.9941 19.24 23.0741 19.24ZM27.4864 19.24C28.1064 19.24 28.5064 19.99 28.6864 21.49V21.67C28.6864 22.35 28.3664 22.69 27.7264 22.69C27.1064 22.69 26.7964 22.04 26.7964 20.74C26.6564 20.74 26.5664 20.51 26.5264 20.05C26.7264 19.51 27.0464 19.24 27.4864 19.24ZM32.843 26.89C34.543 27.03 35.393 27.86 35.393 29.38L35.453 29.77L35.393 34.45C35.393 34.99 35.703 35.72 36.323 36.64V36.7C36.163 37.28 35.873 37.57 35.453 37.57C34.213 37.05 33.593 35.95 33.593 34.27V33.88L33.503 33.82L33.593 33.7V33.64L33.683 29.5C33.683 28.92 33.433 28.63 32.933 28.63H32.573C31.573 29.03 31.073 31.22 31.073 35.2C31.073 36.58 30.723 37.27 30.023 37.27C29.483 37.27 29.203 36.93 29.183 36.25V33.25C29.183 29.37 29.523 27.43 30.203 27.43L30.503 27.34L31.133 27.43C31.673 27.07 32.243 26.89 32.843 26.89ZM37.1134 19.24C37.7334 19.24 38.1334 19.99 38.3134 21.49V21.67C38.3134 22.35 37.9934 22.69 37.3534 22.69C36.7334 22.69 36.4234 22.04 36.4234 20.74C36.2834 20.74 36.1934 20.51 36.1534 20.05C36.3534 19.51 36.6734 19.24 37.1134 19.24ZM43.7 19.93H43.82C46.24 20.37 47.45 21.54 47.45 23.44V23.98C47.45 26.08 46.11 28.17 43.43 30.25V30.37C47.77 34.25 50.77 36.19 52.43 36.19C52.73 36.41 52.88 36.68 52.88 37C52.88 37.46 52.54 37.75 51.86 37.87C50.2 37.87 47.1 35.87 42.56 31.87L41.27 31.18H41.18C41.74 33.42 42.02 35.15 42.02 36.37C42.02 36.89 41.7 37.26 41.06 37.48C40.14 37.48 39.56 35.23 39.32 30.73C38.68 28.65 38.36 26.99 38.36 25.75V25.48C38.36 23.66 38.76 22.75 39.56 22.75L40.13 23.05H40.31C41.27 20.97 42.4 19.93 43.7 19.93ZM41.27 27.94L41.18 29.05C43.04 29.05 44.54 27.51 45.68 24.43V23.32C45.68 22.44 45.08 21.91 43.88 21.73H43.7C42.44 21.73 41.63 23.8 41.27 27.94Z" fill="black"/>
<defs>
<linearGradient id="paint0_linear_29_153" x1="70.0454" y1="27.1929" x2="86.3351" y2="29.3701" gradientUnits="userSpaceOnUse">
<stop offset="0.461" stop-color="#FFB300"/>
<stop offset="0.9157" stop-color="#FF8F00"/>
</linearGradient>
<linearGradient id="paint1_linear_29_153" x1="86.1578" y1="32.8905" x2="103.249" y2="27.5436" gradientUnits="userSpaceOnUse">
<stop offset="0.461" stop-color="#FFB300"/>
<stop offset="1" stop-color="#FF8F00"/>
</linearGradient>
</defs>
</svg>
